# xmcd CD database file
#
# Track frame offsets:
#	150
#	18187
#	40003
#
# Disc length: 773 seconds
#
# Revision: 3
# Processed by: cddbd v1.5.1PL0 Copyright (c) Steve Scherf et al.
# Submitted via: CDex 1.51
#
DISCID=15030303
DTITLE=吉川晃司 - 狂った太陽
DYEAR=2005
DGENRE=Japanese Rock
TTITLE0=狂った太陽
TTITLE1=地上より永遠に
TTITLE2=狂った太陽 〜Instrumental〜
EXTD=YEAR: 2005
EXTT0=
EXTT1=
EXTT2=
PLAYORDER=
